<svg xmlns="http://www.w3.org/2000/svg" width="28" height="28" viewBox="0 0 28 28">
  <path id="Subtraction_13" data-name="Subtraction 13" d="M14,28A14,14,0,0,1,4.1,4.1,14,14,0,0,1,23.9,23.9,13.908,13.908,0,0,1,14,28ZM8.739,8.678h0l2.892,2.893-2.7,2.7L7,16.2l1.929,1.929,4.629,4.628L20.117,16.2,18.188,14.27l-2.7-2.7,2.894-2.893,4.628,4.629,1.929-1.929L18.381,4.821,16.453,6.749,13.56,9.643,8.739,4.821,2.182,11.378,4.11,13.307,8.738,8.679ZM13.56,18.9h0l-2.7-2.7,2.7-2.7,2.7,2.7-2.7,2.7Z" fill="#fff"/>
</svg>
